<svg xmlns="http://www.w3.org/2000/svg" width="39.805" height="40.496" viewBox="0 0 39.805 40.496">
  <g id="half-moon" transform="translate(-4.238 0)">
    <path id="Path_1" data-name="Path 1" d="M55.594,44.711A18.927,18.927,0,1,1,41.214,16.5a2.642,2.642,0,0,1,1.908,4.1,13.006,13.006,0,0,0,10.3,20.141A2.647,2.647,0,0,1,55.594,44.711Z" transform="translate(-14.692 -15.054)"/>
    <path id="Path_2" data-name="Path 2" d="M244.736,46a1.591,1.591,0,0,1-1.522.789,18.873,18.873,0,0,1-14.537-28.055,1.6,1.6,0,0,1,1.546-.794l.247.026a2.578,2.578,0,0,1,1.834,4.016,13,13,0,0,0,10.275,20.18A2.575,2.575,0,0,1,244.736,46Z" transform="translate(-203.848 -16.468)"/>
    <path id="Path_3" data-name="Path 3" d="M42.371,23.978A11.688,11.688,0,0,1,31.993,3.564a1.306,1.306,0,0,0-.353-2.242A20.244,20.244,0,1,0,43.995,25.584a1.318,1.318,0,0,0-1.624-1.606ZM24.47,37.886A17.63,17.63,0,1,1,28.656,3.128a14.3,14.3,0,0,0,12.135,23.8A17.665,17.665,0,0,1,24.47,37.886Z" transform="translate(0 0)"/>
  </g>
</svg>
