<svg xmlns="http://www.w3.org/2000/svg" width="52.879" height="53.166" viewBox="0 0 52.879 53.166">
  <g id="sun_1_" data-name="sun (1)" transform="translate(-1.079 0)">
    <g id="Group_5" data-name="Group 5" transform="translate(43.963 12.847)">
      <g id="Group_4" data-name="Group 4">
        <path id="Path_4" data-name="Path 4" d="M329.487,96.918a.965.965,0,0,0-1.319-.349l-4.711,2.723a.965.965,0,0,0,.97,1.668l4.711-2.723A.965.965,0,0,0,329.487,96.918Z" transform="translate(-322.978 -96.438)" fill="#fff"/>
      </g>
    </g>
    <g id="Group_7" data-name="Group 7" transform="translate(43.963 35.671)">
      <g id="Group_6" data-name="Group 6">
        <path id="Path_5" data-name="Path 5" d="M329.138,270.612l-4.711-2.723a.965.965,0,1,0-.97,1.668l4.711,2.723a.965.965,0,1,0,.97-1.668Z" transform="translate(-322.978 -267.758)" fill="#fff"/>
      </g>
    </g>
    <g id="Group_9" data-name="Group 9" transform="translate(26.551 45.642)">
      <g id="Group_8" data-name="Group 8">
        <path id="Path_6" data-name="Path 6" d="M193.321,342.6a.97.97,0,0,0-1.039.9.956.956,0,0,0,0,.144v5.441a.97.97,0,0,0,1.934.144.956.956,0,0,0,0-.144v-5.441A.97.97,0,0,0,193.321,342.6Z" transform="translate(-192.28 -342.6)" fill="#fff"/>
      </g>
    </g>
    <g id="Group_11" data-name="Group 11" transform="translate(4.433 12.847)">
      <g id="Group_10" data-name="Group 10">
        <path id="Path_7" data-name="Path 7" d="M32.418,99.292l-4.711-2.723a.965.965,0,0,0-.97,1.668l4.711,2.723a.965.965,0,0,0,.97-1.668Z" transform="translate(-26.258 -96.438)" fill="#fff"/>
      </g>
    </g>
    <g id="Group_13" data-name="Group 13" transform="translate(26.551 0)">
      <g id="Group_12" data-name="Group 12" transform="translate(0 0)">
        <path id="Path_8" data-name="Path 8" d="M193.321,0a.97.97,0,0,0-1.039.9.956.956,0,0,0,0,.144V6.482a.967.967,0,1,0,1.934-.005V1.041A.97.97,0,0,0,193.321,0Z" transform="translate(-192.28 0)" fill="#fff"/>
      </g>
    </g>
    <g id="Group_15" data-name="Group 15" transform="translate(13.783 3.498)">
      <g id="Group_14" data-name="Group 14">
        <path id="Path_9" data-name="Path 9" d="M100.954,31.448l-2.718-4.711a.965.965,0,0,0-1.668.97l2.718,4.711a.965.965,0,1,0,1.668-.97Z" transform="translate(-96.438 -26.258)" fill="#fff"/>
      </g>
    </g>
    <g id="Group_17" data-name="Group 17" transform="translate(18.912 17.974)">
      <g id="Group_16" data-name="Group 16">
        <path id="Path_10" data-name="Path 10" d="M143.69,134.922a.96.96,0,0,0-.144,0,8.606,8.606,0,0,0-8.606,8.606.967.967,0,1,0,1.934,0,6.667,6.667,0,0,1,6.661-6.672h.011a.97.97,0,0,0,.144-1.934Z" transform="translate(-134.94 -134.92)" fill="#fff"/>
      </g>
    </g>
    <g id="Group_19" data-name="Group 19" transform="translate(46.577 25.61)">
      <g id="Group_18" data-name="Group 18">
        <path id="Path_11" data-name="Path 11" d="M349.978,193.137a.97.97,0,0,0-.9-.9h-5.441a.97.97,0,0,0-.144,1.934.95.95,0,0,0,.144,0h5.441A.97.97,0,0,0,349.978,193.137Z" transform="translate(-342.6 -192.239)" fill="#fff"/>
      </g>
    </g>
    <g id="Group_21" data-name="Group 21" transform="translate(1.079 25.616)">
      <g id="Group_20" data-name="Group 20" transform="translate(0)">
        <path id="Path_12" data-name="Path 12" d="M7.561,192.282a.956.956,0,0,0-.144,0H1.977a.97.97,0,0,0,0,1.934H7.418a.97.97,0,1,0,.144-1.934Z" transform="translate(-1.079 -192.28)" fill="#fff"/>
      </g>
    </g>
    <g id="Group_23" data-name="Group 23" transform="translate(13.287 12.349)">
      <g id="Group_22" data-name="Group 22">
        <path id="Path_13" data-name="Path 13" d="M106.949,92.7a14.233,14.233,0,1,0,14.231,14.235A14.234,14.234,0,0,0,106.949,92.7Zm8.693,22.946a12.3,12.3,0,0,1-17.394-17.41v.016a12.3,12.3,0,1,1,17.394,17.394Z" transform="translate(-92.714 -92.7)" fill="#fff"/>
      </g>
    </g>
    <g id="Group_25" data-name="Group 25" transform="translate(36.601 43.028)">
      <g id="Group_24" data-name="Group 24">
        <path id="Path_14" data-name="Path 14" d="M272.241,328.173l0,0-2.723-4.711a.965.965,0,1,0-1.668.97l2.723,4.711a.965.965,0,0,0,1.67-.966Z" transform="translate(-267.717 -322.978)" fill="#fff"/>
      </g>
    </g>
    <g id="Group_27" data-name="Group 27" transform="translate(36.631 3.498)">
      <g id="Group_26" data-name="Group 26">
        <path id="Path_15" data-name="Path 15" d="M272.118,26.389a.965.965,0,0,0-1.319.349l-2.723,4.711a.964.964,0,0,0,.344,1.32l0,0h0a.964.964,0,0,0,1.319-.347l0,0,2.723-4.711A.965.965,0,0,0,272.118,26.389Z" transform="translate(-267.943 -26.258)" fill="#fff"/>
      </g>
    </g>
    <g id="Group_29" data-name="Group 29" transform="translate(13.783 43.028)">
      <g id="Group_28" data-name="Group 28">
        <path id="Path_16" data-name="Path 16" d="M100.611,323.109a.965.965,0,0,0-1.319.349l-2.723,4.711a.965.965,0,1,0,1.668.97l2.723-4.711A.965.965,0,0,0,100.611,323.109Z" transform="translate(-96.438 -322.978)" fill="#fff"/>
      </g>
    </g>
    <g id="Group_31" data-name="Group 31" transform="translate(4.433 35.666)">
      <g id="Group_30" data-name="Group 30">
        <path id="Path_17" data-name="Path 17" d="M32.767,268.2a.965.965,0,0,0-1.319-.349l-4.711,2.723a.965.965,0,1,0,.97,1.668l4.711-2.723A.965.965,0,0,0,32.767,268.2Z" transform="translate(-26.258 -267.718)" fill="#fff"/>
      </g>
    </g>
  </g>
</svg>
